# xmcd
#
# Track frame offsets: 
#        150
#        16360
#        28584
#        49251
#        62286
#        76620
#        89940
#        108005
#        129297
#        141568
#        157287
#
# Disc length: 2242 seconds
#
# Revision: 0
# Processed by: cddbd v1.5.2PL0 Copyright (c) Steve Scherf et al.
# Submitted via: ExactAudioCopyFreeDBPlugin 1.0
#
DISCID=8d08c00b
DTITLE=Wendy DeWitt - Solo Piano
DYEAR=2006
DGENRE=Blues
TTITLE0=Bass Key Boogie
TTITLE1=Sitting On Top Of The World
TTITLE2=Sunshine Boogie
TTITLE3=Hilltop Stomp
TTITLE4=Chicago Breakdown
TTITLE5=Southside Boogie
TTITLE6=Walking
TTITLE7=Messing Around With The Blues
TTITLE8=Go Tell It On The Mountain
TTITLE9=Boogie Woogie Rambler
TTITLE10=Route 66
EXTD=
EXTT0=
EXTT1=
EXTT2=
EXTT3=
EXTT4=
EXTT5=
EXTT6=
EXTT7=
EXTT8=
EXTT9=
EXTT10=
PLAYORDER=
